<svg width="22" height="22" viewBox="0 0 22 22" fill="none" xmlns="http://www.w3.org/2000/svg">
<path d="M8.47926 20.1666L8.1126 17.2333C7.91399 17.1569 7.72683 17.0653 7.55114 16.9583C7.37544 16.8514 7.20357 16.7368 7.03551 16.6146L4.30843 17.7604L1.7876 13.4062L4.14801 11.6187C4.13274 11.5118 4.1251 11.4087 4.1251 11.3094V10.6906C4.1251 10.5913 4.13274 10.4882 4.14801 10.3812L1.7876 8.59373L4.30843 4.23956L7.03551 5.3854C7.20357 5.26317 7.37926 5.14859 7.5626 5.04165C7.74593 4.9347 7.92926 4.84304 8.1126 4.76665L8.47926 1.83331H13.5209L13.8876 4.76665C14.0862 4.84304 14.2734 4.9347 14.4491 5.04165C14.6247 5.14859 14.7966 5.26317 14.9647 5.3854L17.6918 4.23956L20.2126 8.59373L17.8522 10.3812C17.8675 10.4882 17.8751 10.5913 17.8751 10.6906V11.3094C17.8751 11.4087 17.8598 11.5118 17.8293 11.6187L20.1897 13.4062L17.6688 17.7604L14.9647 16.6146C14.7966 16.7368 14.6209 16.8514 14.4376 16.9583C14.2543 17.0653 14.0709 17.1569 13.8876 17.2333L13.5209 20.1666H8.47926ZM10.0834 18.3333H11.8938L12.2147 15.9041C12.6883 15.7819 13.1275 15.6024 13.5324 15.3656C13.9372 15.1288 14.3077 14.8423 14.6438 14.5062L16.9126 15.4458L17.8063 13.8875L15.8355 12.3979C15.9119 12.184 15.9654 11.9587 15.9959 11.7219C16.0265 11.485 16.0418 11.2444 16.0418 11C16.0418 10.7555 16.0265 10.5149 15.9959 10.2781C15.9654 10.0413 15.9119 9.81595 15.8355 9.60206L17.8063 8.11248L16.9126 6.55415L14.6438 7.51665C14.3077 7.16526 13.9372 6.87116 13.5324 6.63435C13.1275 6.39755 12.6883 6.21804 12.2147 6.09581L11.9168 3.66665H10.1063L9.78551 6.09581C9.3119 6.21804 8.87267 6.39755 8.46781 6.63435C8.06294 6.87116 7.69246 7.15762 7.35635 7.49373L5.0876 6.55415L4.19385 8.11248L6.16468 9.57915C6.08829 9.80831 6.03482 10.0375 6.00426 10.2666C5.97371 10.4958 5.95843 10.7403 5.95843 11C5.95843 11.2444 5.97371 11.4812 6.00426 11.7104C6.03482 11.9396 6.08829 12.1687 6.16468 12.3979L4.19385 13.8875L5.0876 15.4458L7.35635 14.4833C7.69246 14.8347 8.06294 15.1288 8.46781 15.3656C8.87267 15.6024 9.3119 15.7819 9.78551 15.9041L10.0834 18.3333ZM11.0459 14.2083C11.932 14.2083 12.6883 13.8951 13.3147 13.2687C13.9411 12.6423 14.2543 11.8861 14.2543 11C14.2543 10.1139 13.9411 9.35762 13.3147 8.73123C12.6883 8.10484 11.932 7.79165 11.0459 7.79165C10.1445 7.79165 9.38447 8.10484 8.76572 8.73123C8.14697 9.35762 7.8376 10.1139 7.8376 11C7.8376 11.8861 8.14697 12.6423 8.76572 13.2687C9.38447 13.8951 10.1445 14.2083 11.0459 14.2083Z" fill="white"/>
</svg>
